C:\GBW_MyPrograms\PredSim_2D_BCN\PredSimResults\BCN_CP2\BCN_CP2_job23.mot
version=1
nRows=8
nColumns=29
inDegrees=yes
endheader
                time	         pelvis_tilt	           pelvis_tx	           pelvis_ty	       hip_flexion_l	       hip_flexion_r	        knee_angle_l	        knee_angle_r	       ankle_angle_l	       ankle_angle_r	    lumbar_extension	hamstrings_r/activation	bifemsh_r/activation	glut_max_r/activation	iliopsoas_r/activation	rect_fem_r/activation	  vasti_r/activation	gastroc_r/activation	 soleus_r/activation	tib_ant_r/activation	hamstrings_l/activation	bifemsh_l/activation	glut_max_l/activation	iliopsoas_l/activation	rect_fem_l/activation	  vasti_l/activation	gastroc_l/activation	 soleus_l/activation	tib_ant_l/activation	
          1.81632436	         -7.61161639	          1.84230294	          0.89683884	         33.49913366	         -8.44254921	        -13.37139488	         -9.27839217	          8.69613026	          8.32021153	          0.15865248	          0.05000044	          0.14183535	          0.05000063	          0.38093857	          0.06207910	          0.05000112	          0.30617823	          0.32572407	          0.05000008	          0.12743963	          0.06016562	          0.05000046	          0.08400088	          0.07152706	          0.05000019	          0.05419837	          0.05000228	          0.19176969	
          1.82843319	         -7.67147867	          1.85781919	          0.89616253	         32.70341524	         -8.49356995	        -12.41518925	        -10.81663331	          8.55432899	          7.53747972	          0.55485167	          0.05000042	          0.11801784	          0.05530845	          0.37881818	          0.07220992	          0.05000199	          0.28104296	          0.30729013	          0.05000006	          0.12674157	          0.05007580	          0.05000110	          0.06989521	          0.05951917	          0.05000019	          0.05612849	          0.05000218	          0.19683914	
          1.84054202	         -7.72017833	          1.87380944	          0.89547868	         31.78080705	         -8.36533052	        -11.77381379	        -12.72422598	          8.34669028	          6.62989666	          0.99687232	          0.05000033	          0.09819986	          0.06471514	          0.36139608	          0.06008583	          0.05000575	          0.24892624	          0.28762144	          0.05000005	          0.11408391	          0.05000161	          0.05576023	          0.05815822	          0.05000745	          0.05396954	          0.05600891	          0.05000497	          0.21369057	
          1.85265085	         -7.75642552	          1.89018950	          0.89477278	         30.79605856	         -8.03728653	        -11.67799887	        -15.01903256	          8.04496806	          5.54629676	          1.47389441	          0.05000073	          0.08170983	          0.10379273	          0.31515118	          0.05000091	          0.05000033	          0.20712556	          0.24606421	          0.05000005	          0.10138222	          0.05001685	          0.05000055	          0.05000043	          0.05000049	          0.05328385	          0.05948312	          0.05234501	          0.20016395	
          1.86475968	         -7.78345222	          1.90667954	          0.89423875	         29.84205228	         -7.49032221	        -11.83728009	        -17.66160723	          7.67853329	          4.15835317	          1.95474648	          0.05000119	          0.06798889	          0.08679571	          0.28646051	          0.05000060	          0.05867249	          0.17234415	          0.20474406	          0.05000004	          0.08435838	          0.06010861	          0.11775400	          0.05000020	          0.05000030	          0.09736413	          0.05000903	          0.05000038	          0.24576916	
          1.87686851	         -7.80674938	          1.92290751	          0.89422989	         29.01818362	         -6.68131357	        -12.17367258	        -20.61855716	          7.27099232	          2.27684902	          2.39901548	          0.05000059	          0.05657216	          0.07222068	          0.26118834	          0.05000097	          0.05000079	          0.14340338	          0.17036256	          0.05000006	          0.07019341	          0.05001570	          0.14986019	          0.05000019	          0.05000047	          0.17159784	          0.05000099	          0.05000043	          0.26552246	
          1.88897734	         -7.82872876	          1.93866711	          0.89487209	         28.26921056	         -5.58419299	        -12.59242965	        -23.89302400	          6.97509485	         -0.02920374	          2.78471005	          0.05000057	          0.05000078	          0.06009310	          0.22671973	          0.05000107	          0.05000015	          0.11932247	          0.14175454	          0.22164232	          0.07095350	          0.05000280	          0.16403637	          0.05000019	          0.05000039	          0.23034016	          0.05000040	          0.05000046	          0.28180330	
          1.90108617	         -7.85031337	          1.95383369	          0.89590449	         27.50497861	         -4.31495087	        -12.92620665	        -27.27793801	          6.78837159	         -1.67599906	          3.09837986	          0.05000093	          0.07282979	          0.05000207	          0.20779880	          0.05000060	          0.05000005	          0.09928535	          0.11795051	          0.20676958	          0.06010833	          0.05000143	          0.16445104	          0.05000018	          0.05000055	          0.25930911	          0.05000030	          0.05000025	          0.29213562	
